<?xml version="1.0" encoding="UTF-8"?>
<svg xmlns="http://www.w3.org/2000/svg" xmlns:xlink="http://www.w3.org/1999/xlink" width="12px" height="12px" viewBox="0 0 12 11" version="1.1">
<g id="surface1">
<path style=" stroke:none;fill-rule:nonzero;fill:rgb(0%,0%,0%);fill-opacity:1;" d="M 0 5.5 C 0 3.980469 0.585938 2.683594 1.757812 1.609375 C 2.929688 0.535156 4.34375 0 6 0 C 7.65625 0 9.070312 0.535156 10.242188 1.609375 C 11.414062 2.683594 12 3.980469 12 5.5 C 12 7.019531 11.414062 8.3125 10.242188 9.386719 C 9.070312 10.460938 7.65625 11 6 11 C 4.34375 11 2.929688 10.464844 1.757812 9.386719 C 0.585938 8.316406 0 7.019531 0 5.5 Z M 0.65625 5.5 C 0.65625 6.847656 1.179688 8 2.226562 8.960938 C 3.273438 9.917969 4.53125 10.398438 6 10.398438 C 7.46875 10.398438 8.726562 9.917969 9.773438 8.960938 C 10.820312 8 11.34375 6.847656 11.34375 5.5 C 11.34375 4.152344 10.820312 3 9.773438 2.039062 C 8.726562 1.082031 7.46875 0.601562 6 0.601562 C 4.53125 0.601562 3.273438 1.082031 2.226562 2.039062 C 1.179688 3 0.65625 4.152344 0.65625 5.5 Z M 2.34375 6.679688 C 2.3125 6.652344 2.3125 6.625 2.34375 6.59375 C 2.40625 6.539062 2.484375 6.515625 2.578125 6.53125 C 2.671875 6.546875 2.726562 6.558594 2.742188 6.574219 C 2.851562 6.617188 2.972656 6.714844 3.105469 6.863281 C 3.238281 7.015625 3.34375 7.117188 3.421875 7.175781 C 3.796875 7.460938 4.179688 7.484375 4.570312 7.238281 C 4.601562 7.140625 4.652344 7.054688 4.722656 6.980469 C 4.792969 6.910156 4.859375 6.859375 4.921875 6.832031 C 4.984375 6.804688 5.09375 6.761719 5.25 6.703125 C 4.734375 6.660156 4.316406 6.578125 3.996094 6.457031 C 3.675781 6.335938 3.421875 6.179688 3.234375 5.992188 C 2.984375 5.734375 2.832031 5.398438 2.777344 4.984375 C 2.722656 4.570312 2.757812 4.1875 2.882812 3.84375 C 2.976562 3.628906 3.109375 3.4375 3.28125 3.265625 C 3.15625 2.90625 3.179688 2.5 3.351562 2.039062 C 3.851562 2.070312 4.304688 2.226562 4.710938 2.511719 C 5.492188 2.328125 6.304688 2.320312 7.148438 2.492188 C 7.257812 2.421875 7.425781 2.332031 7.652344 2.222656 C 7.878906 2.117188 8.164062 2.054688 8.507812 2.039062 C 8.570312 2.199219 8.613281 2.382812 8.636719 2.597656 C 8.660156 2.8125 8.648438 3.015625 8.601562 3.199219 C 8.960938 3.542969 9.148438 4.003906 9.164062 4.574219 C 9.164062 5.035156 9.078125 5.414062 8.90625 5.714844 C 8.734375 6.015625 8.429688 6.265625 7.992188 6.464844 C 7.695312 6.59375 7.304688 6.675781 6.820312 6.703125 C 7.039062 6.804688 7.199219 6.90625 7.300781 7.015625 C 7.402344 7.121094 7.46875 7.289062 7.5 7.519531 L 7.5 8.195312 L 7.523438 8.851562 C 7.570312 8.921875 7.625 8.984375 7.6875 9.035156 C 7.75 9.085938 7.804688 9.121094 7.851562 9.140625 C 7.898438 9.164062 7.914062 9.195312 7.898438 9.238281 C 7.882812 9.28125 7.820312 9.300781 7.710938 9.300781 C 7.445312 9.300781 7.234375 9.214844 7.078125 9.042969 C 7.03125 8.972656 7.007812 8.886719 7.007812 8.785156 L 7.007812 7.753906 C 7.007812 7.640625 6.976562 7.558594 6.914062 7.507812 C 6.851562 7.457031 6.789062 7.425781 6.726562 7.410156 L 6.726562 8.765625 C 6.726562 9.007812 6.757812 9.167969 6.820312 9.238281 C 6.882812 9.308594 6.921875 9.382812 6.9375 9.453125 C 6.953125 9.46875 6.941406 9.476562 6.902344 9.484375 C 6.863281 9.492188 6.796875 9.480469 6.703125 9.453125 C 6.5 9.410156 6.359375 9.3125 6.28125 9.164062 C 6.203125 9.011719 6.164062 8.851562 6.164062 8.679688 L 6.164062 7.347656 L 5.859375 7.347656 L 5.859375 8.679688 C 5.859375 8.851562 5.820312 9.015625 5.742188 9.171875 C 5.632812 9.375 5.429688 9.480469 5.132812 9.496094 C 5.085938 9.480469 5.0625 9.46875 5.0625 9.453125 C 5.078125 9.4375 5.125 9.367188 5.203125 9.238281 C 5.21875 9.210938 5.238281 9.152344 5.261719 9.066406 C 5.285156 8.980469 5.296875 8.878906 5.296875 8.765625 L 5.296875 7.410156 C 5.234375 7.425781 5.175781 7.457031 5.121094 7.507812 C 5.066406 7.558594 5.039062 7.640625 5.039062 7.757812 L 5.039062 8.789062 C 5.039062 8.886719 5.015625 8.972656 4.96875 9.046875 C 4.828125 9.21875 4.617188 9.304688 4.335938 9.304688 C 4.226562 9.304688 4.164062 9.28125 4.148438 9.238281 C 4.132812 9.210938 4.136719 9.183594 4.160156 9.164062 C 4.183594 9.140625 4.21875 9.117188 4.265625 9.089844 C 4.3125 9.058594 4.34375 9.039062 4.359375 9.023438 C 4.421875 8.980469 4.46875 8.921875 4.5 8.851562 C 4.546875 8.792969 4.558594 8.644531 4.535156 8.402344 C 4.511719 8.15625 4.507812 8 4.523438 7.929688 C 4.117188 8.058594 3.703125 7.992188 3.28125 7.734375 C 3.15625 7.621094 3.03125 7.453125 2.90625 7.242188 C 2.8125 7.082031 2.625 6.894531 2.34375 6.679688 Z M 2.34375 6.679688 "/>
</g>
</svg>
