<?xml version="1.0" encoding="UTF-8"?>
<svg xmlns="http://www.w3.org/2000/svg" xmlns:xlink="http://www.w3.org/1999/xlink" width="12px" height="12px" viewBox="0 0 12 11" version="1.1">
<defs>
<linearGradient id="linear0" gradientUnits="userSpaceOnUse" x1="-974.482" y1="1306.773" x2="-622.378" y2="1658.877" gradientTransform="matrix(0.0240988,0,0,0.0220905,25.241158,-27.256386)">
<stop offset="0" style="stop-color:rgb(14.117647%,53.72549%,74.509804%);stop-opacity:1;"/>
<stop offset="1" style="stop-color:rgb(1.960784%,45.882353%,70.196078%);stop-opacity:1;"/>
</linearGradient>
</defs>
<g id="surface1">
<path style=" stroke:none;fill-rule:nonzero;fill:url(#linear0);" d="M 6 0 C 2.6875 0 0 2.460938 0 5.5 C 0 8.539062 2.6875 11 6 11 C 9.3125 11 12 8.539062 12 5.5 C 12 2.460938 9.3125 0 6 0 Z M 4.398438 8.160156 L 3.082031 8.160156 L 3.082031 4.257812 L 4.398438 4.257812 Z M 3.734375 3.746094 C 3.304688 3.746094 2.957031 3.425781 2.957031 3.027344 C 2.957031 2.628906 3.304688 2.308594 3.734375 2.308594 C 4.164062 2.308594 4.511719 2.628906 4.511719 3.027344 C 4.511719 3.425781 4.164062 3.746094 3.734375 3.746094 Z M 9.335938 8.160156 L 8.023438 8.160156 L 8.023438 6.109375 C 8.023438 5.550781 7.792969 5.234375 7.308594 5.234375 C 6.78125 5.234375 6.503906 5.5625 6.503906 6.109375 L 6.503906 8.160156 L 5.242188 8.160156 L 5.242188 4.257812 L 6.503906 4.257812 L 6.503906 4.78125 C 6.503906 4.78125 6.886719 4.136719 7.789062 4.136719 C 8.691406 4.136719 9.335938 4.644531 9.335938 5.6875 Z M 9.335938 8.160156 "/>
</g>
</svg>
